<?xml version="1.0" encoding="UTF-8"?>
<svg version="1.1" xmlns="http://www.w3.org/2000/svg" width="109" height="111">
<path d="M0 0 C1.54879197 0.02512431 3.09762336 0.04793016 4.64648438 0.06835938 C8.41114338 0.12300686 12.17387902 0.2090426 15.9375 0.3125 C13.70175178 2.54824822 11.64783371 3.55618358 8.8125 4.9375 C7.90242188 5.38351563 6.99234375 5.82953125 6.0546875 6.2890625 C5.35601562 6.62679688 4.65734375 6.96453125 3.9375 7.3125 C3.93385437 7.93810822 3.93020874 8.56371643 3.92645264 9.20828247 C3.88458526 15.7300508 3.81520955 22.25111816 3.72998047 28.77246094 C3.70178549 31.20500675 3.68056368 33.63764392 3.66650391 36.0703125 C3.64505492 39.57078782 3.59839157 43.07016631 3.546875 46.5703125 C3.54503204 48.19720505 3.54503204 48.19720505 3.54315186 49.85696411 C3.41389297 56.5472009 2.77639853 60.47360147 -2.0625 65.3125 C1.27288042 65.38026168 4.60185092 65.36368643 7.9375 65.3125 C9.00742187 65.29703125 10.07734375 65.2815625 11.1796875 65.265625 C19.69633794 64.9049198 25.98441404 63.60352373 31.90234375 57.1796875 C36.03616053 51.74367474 38.2701229 46.23055892 40.11328125 39.68359375 C40.9375 37.3125 40.9375 37.3125 42.9375 36.3125 C46.13193573 42.70137146 44.23908697 52.34946615 42.375 58.9375 C39.57251644 67.11474667 35.21801194 74.49116999 29.9375 81.3125 C24.02872247 80.76284628 18.66068315 79.07105798 13.0234375 77.25 C6.25711131 75.19440723 -0.09528367 75.09556157 -7.125 75.0625 C-8.19427734 75.041875 -9.26355469 75.02125 -10.36523438 75 C-18.00370714 74.96307687 -24.74875119 76.13047032 -32.0625 78.3125 C-30.54512418 75.05546029 -29.43595344 73.58412092 -26.3125 71.75 C-25.60351562 71.3271875 -24.89453125 70.904375 -24.1640625 70.46875 C-22.37839482 69.48630087 -20.53700024 68.60625011 -18.6875 67.75 C-15.71298499 66.12109892 -15.29543766 65.36766109 -14.0625 62.3125 C-12.7544208 55.87692072 -12.86266362 49.13148921 -12.74609375 42.58984375 C-12.72531265 41.60375626 -12.70453156 40.61766876 -12.68312073 39.60169983 C-12.61829082 36.48453015 -12.55905316 33.36728392 -12.5 30.25 C-12.45675131 28.1230393 -12.41313511 25.99608603 -12.36914062 23.86914062 C-12.26267873 18.68367006 -12.16122843 13.49812334 -12.0625 8.3125 C-13.67580173 8.77622101 -15.28757639 9.24525716 -16.89868164 9.71655273 C-18.24525597 10.10749367 -18.24525597 10.10749367 -19.61903381 10.5063324 C-22.3418761 11.40467396 -24.3073279 12.53126927 -26.5 14.375 C-27.11746094 14.88160156 -27.73492188 15.38820313 -28.37109375 15.91015625 C-28.92925781 16.37292969 -29.48742187 16.83570312 -30.0625 17.3125 C-31.0525 17.9725 -32.0425 18.6325 -33.0625 19.3125 C-32.49245204 15.63309956 -31.55569085 12.95731223 -29.5625 9.8125 C-29.1190625 9.0803125 -28.675625 8.348125 -28.21875 7.59375 C-20.19453071 -0.89564142 -10.87981442 -0.30812769 0 0 Z " fill="#4557BD" transform="translate(48.0625,14.6875)"/>
</svg>
