<?xml version="1.0" encoding="UTF-8"?>
<svg version="1.1" xmlns="http://www.w3.org/2000/svg" width="372" height="122">
<path d="M0 0 C1.54879197 0.02512431 3.09762336 0.04793016 4.64648438 0.06835938 C8.41114338 0.12300686 12.17387902 0.2090426 15.9375 0.3125 C13.70175178 2.54824822 11.64783371 3.55618358 8.8125 4.9375 C7.90242188 5.38351563 6.99234375 5.82953125 6.0546875 6.2890625 C5.35601562 6.62679688 4.65734375 6.96453125 3.9375 7.3125 C3.93385437 7.93810822 3.93020874 8.56371643 3.92645264 9.20828247 C3.88458526 15.7300508 3.81520955 22.25111816 3.72998047 28.77246094 C3.70178549 31.20500675 3.68056368 33.63764392 3.66650391 36.0703125 C3.64505492 39.57078782 3.59839157 43.07016631 3.546875 46.5703125 C3.54503204 48.19720505 3.54503204 48.19720505 3.54315186 49.85696411 C3.41389297 56.5472009 2.77639853 60.47360147 -2.0625 65.3125 C1.27288042 65.38026168 4.60185092 65.36368643 7.9375 65.3125 C9.00742188 65.29703125 10.07734375 65.2815625 11.1796875 65.265625 C19.69633794 64.9049198 25.98441404 63.60352373 31.90234375 57.1796875 C36.03616053 51.74367474 38.2701229 46.23055892 40.11328125 39.68359375 C40.9375 37.3125 40.9375 37.3125 42.9375 36.3125 C46.13193573 42.70137146 44.23908697 52.34946615 42.375 58.9375 C39.57251644 67.11474667 35.21801194 74.49116999 29.9375 81.3125 C24.02872247 80.76284628 18.66068315 79.07105798 13.0234375 77.25 C6.25711131 75.19440723 -0.09528367 75.09556157 -7.125 75.0625 C-8.19427734 75.041875 -9.26355469 75.02125 -10.36523438 75 C-18.00370714 74.96307687 -24.74875119 76.13047032 -32.0625 78.3125 C-30.54512418 75.05546029 -29.43595344 73.58412092 -26.3125 71.75 C-25.60351562 71.3271875 -24.89453125 70.904375 -24.1640625 70.46875 C-22.37839482 69.48630087 -20.53700024 68.60625011 -18.6875 67.75 C-15.71298499 66.12109892 -15.29543766 65.36766109 -14.0625 62.3125 C-12.7544208 55.87692072 -12.86266362 49.13148921 -12.74609375 42.58984375 C-12.72531265 41.60375626 -12.70453156 40.61766876 -12.68312073 39.60169983 C-12.61829082 36.48453015 -12.55905316 33.36728392 -12.5 30.25 C-12.45675131 28.1230393 -12.41313511 25.99608603 -12.36914062 23.86914062 C-12.26267873 18.68367006 -12.16122843 13.49812334 -12.0625 8.3125 C-13.67580173 8.77622101 -15.28757639 9.24525716 -16.89868164 9.71655273 C-18.24525597 10.10749367 -18.24525597 10.10749367 -19.61903381 10.5063324 C-22.3418761 11.40467396 -24.3073279 12.53126927 -26.5 14.375 C-27.11746094 14.88160156 -27.73492187 15.38820313 -28.37109375 15.91015625 C-28.92925781 16.37292969 -29.48742188 16.83570312 -30.0625 17.3125 C-31.0525 17.9725 -32.0425 18.6325 -33.0625 19.3125 C-32.49245204 15.63309956 -31.55569085 12.95731223 -29.5625 9.8125 C-29.1190625 9.0803125 -28.675625 8.348125 -28.21875 7.59375 C-20.19453071 -0.89564142 -10.87981442 -0.30812769 0 0 Z " fill="#4557BD" transform="translate(64.0625,21.6875)"/>
<path d="M0 0 C3.96 0 7.92 0 12 0 C12 9.9 12 19.8 12 30 C15.465 29.505 15.465 29.505 19 29 C20.36839363 26.26321275 20.21634818 23.95735576 20.31640625 20.8984375 C20.35830078 19.68671875 20.40019531 18.475 20.44335938 17.2265625 C20.48267578 15.95554687 20.52199219 14.68453125 20.5625 13.375 C20.60568359 12.09625 20.64886719 10.8175 20.69335938 9.5 C20.7996981 6.33346918 20.9003767 3.16674921 21 0 C24.96 0 28.92 0 33 0 C33 12.54 33 25.08 33 38 C23 38 23 38 21 37 C20.41089844 37.30164063 19.82179687 37.60328125 19.21484375 37.9140625 C15.08047583 39.94114236 10.48981719 39.55208123 6 39 C2.38308725 36.90219061 1.31708591 35.95125774 0 32 C-0.0845387 29.5589224 -0.11605786 27.14740787 -0.09765625 24.70703125 C-0.0962413 24.00100266 -0.09482635 23.29497406 -0.09336853 22.56755066 C-0.08777764 20.31582374 -0.07522688 18.06419679 -0.0625 15.8125 C-0.05748382 14.28450665 -0.05292112 12.75651173 -0.04882812 11.22851562 C-0.0378112 7.48563865 -0.02055287 3.74283627 0 0 Z " fill="#4457BE" transform="translate(123,44)"/>
<path d="M0 0 C0.69416016 -0.01611328 1.38832031 -0.03222656 2.10351562 -0.04882812 C6.58513243 -0.05308417 9.40846208 0.52575526 12.9375 3.3125 C15.91646141 6.54567458 16.33825538 8.82211082 16.44921875 13.171875 C16.48466797 14.28691406 16.52011719 15.40195312 16.55664062 16.55078125 C16.59047852 18.28908203 16.59047852 18.28908203 16.625 20.0625 C16.65916016 21.23683594 16.69332031 22.41117188 16.72851562 23.62109375 C16.81095173 26.51813389 16.88011811 29.41487298 16.9375 32.3125 C17.5975 32.3125 18.2575 32.3125 18.9375 32.3125 C18.0625 38.0625 18.0625 38.0625 16.9375 40.3125 C10.3125 39.5625 10.3125 39.5625 6.9375 37.3125 C6.23496094 37.7971875 5.53242188 38.281875 4.80859375 38.78125 C0.02775766 41.33102925 -4.78141716 41.09752583 -10.0625 40.3125 C-13.2887505 38.67511723 -15.42228168 36.59293664 -17.0625 33.3125 C-17.57287087 29.25869711 -17.95524541 25.1350342 -16.12109375 21.390625 C-13.52600977 18.10406096 -10.9840385 16.54079798 -7.0625 15.3125 C-3.94921875 15.1171875 -3.94921875 15.1171875 -0.75 15.1875 C0.31863281 15.20554687 1.38726562 15.22359375 2.48828125 15.2421875 C3.29652344 15.26539063 4.10476563 15.28859375 4.9375 15.3125 C3.84965032 12.06266865 3.84965032 12.06266865 1.9375 9.3125 C-2.84502409 9.12119904 -7.34461812 9.54223357 -12.0625 10.3125 C-13.82712683 7.22440305 -14.0625 6.07937864 -14.0625 2.3125 C-9.33065277 0.45382448 -5.03301597 -0.02349681 0 0 Z M-4.0625 23.3125 C-5.39437793 24.42416864 -5.39437793 24.42416864 -5.25 27.25 C-5.39528733 30.42142859 -5.39528733 30.42142859 -3.0625 32.3125 C-0.02905046 32.22365 -0.02905046 32.22365 2.9375 31.3125 C5.3669516 27.6683226 5.09929575 25.60008728 4.9375 21.3125 C1.12533819 21.3125 -0.69178748 21.76379425 -4.0625 23.3125 Z " fill="#4457BE" transform="translate(327.0625,42.6875)"/>
<path d="M0 0 C2.1875 1.09765625 2.1875 1.09765625 5.3125 3.09765625 C3.9925 5.40765625 2.6725 7.71765625 1.3125 10.09765625 C-3.4375 9.22265625 -3.4375 9.22265625 -5.6875 8.09765625 C-7.68710012 8.05766425 -9.68797242 8.05418826 -11.6875 8.09765625 C-11.6875 9.41765625 -11.6875 10.73765625 -11.6875 12.09765625 C-10.80707031 12.38898437 -9.92664063 12.6803125 -9.01953125 12.98046875 C3.17296512 17.28370276 3.17296512 17.28370276 6.3125 23.09765625 C6.86207629 27.0133873 6.69676299 29.25227767 5.0625 32.84765625 C2.48673499 36.15935412 0.28909717 37.77212386 -3.6875 39.09765625 C-12.26640803 39.71843133 -19.29904472 39.9227699 -26.6875 35.09765625 C-26.6875 31.18926759 -25.18182124 29.98171518 -22.6875 27.09765625 C-22.048125 27.40703125 -21.40875 27.71640625 -20.75 28.03515625 C-16.80017023 29.40550536 -12.86831985 29.99087696 -8.6875 30.09765625 C-8.0275 29.76765625 -7.3675 29.43765625 -6.6875 29.09765625 C-6.69724539 27.14976835 -6.69724539 27.14976835 -7.6875 25.09765625 C-10.55207246 23.64927822 -10.55207246 23.64927822 -14 22.59765625 C-18.53851243 21.09328931 -21.7147521 19.94099461 -24.6875 16.09765625 C-26.03044295 11.99544252 -26.11819711 8.26307195 -24.625 4.22265625 C-18.54749288 -2.44299672 -8.1619676 -2.74042807 0 0 Z " fill="#4456BF" transform="translate(202.6875,43.90234375)"/>
<path d="M0 0 C0 3.3 0 6.6 0 10 C2.97 10 5.94 10 9 10 C8.67 12.64 8.34 15.28 8 18 C5.36 18 2.72 18 0 18 C0.33 25.59 0.66 33.18 1 41 C4.465 40.505 4.465 40.505 8 40 C9.5625 41.75 9.5625 41.75 11 44 C10.875 46.1875 10.875 46.1875 10 48 C6.80843552 49.06385483 4.41502524 49.16677982 1.0625 49.1875 C-0.49791016 49.20876953 -0.49791016 49.20876953 -2.08984375 49.23046875 C-5.09923844 48.99214085 -6.60019703 48.80892276 -9 47 C-12.99653231 41.52160739 -12.3430148 35.60079572 -12.1875 29.125 C-12.17396484 28.05507813 -12.16042969 26.98515625 -12.14648438 25.8828125 C-12.11128624 23.25468489 -12.06204693 20.62760806 -12 18 C-13.98 18 -15.96 18 -18 18 C-18 15.36 -18 12.72 -18 10 C-16.02 10 -14.04 10 -12 10 C-12 7.03 -12 4.06 -12 1 C-7.89864774 0.35665063 -4.17263102 0 0 0 Z " fill="#4456BE" transform="translate(242,34)"/>
<path d="M0 0 C-0.66 3.63 -1.32 7.26 -2 11 C-3.093125 11.0825 -4.18625 11.165 -5.3125 11.25 C-8.98960131 11.64460943 -8.98960131 11.64460943 -10.875 13.875 C-12.63273302 17.19516236 -13.15151515 19.96969702 -13.31640625 23.66796875 C-13.35830078 24.56064453 -13.40019531 25.45332031 -13.44335938 26.37304688 C-13.50233398 27.76620117 -13.50233398 27.76620117 -13.5625 29.1875 C-13.60568359 30.12787109 -13.64886719 31.06824219 -13.69335938 32.03710938 C-13.79938543 34.35790188 -13.90019194 36.67893177 -14 39 C-17.63 39 -21.26 39 -25 39 C-25 26.46 -25 13.92 -25 1 C-21.7 1 -18.4 1 -15 1 C-14.67 1.99 -14.34 2.98 -14 4 C-13.54625 3.34 -13.0925 2.68 -12.625 2 C-8.54860457 -1.10582509 -5.03648067 -0.26507793 0 0 Z " fill="#4557BE" transform="translate(297,43)"/>
</svg>
